<?xml version="1.0" encoding="UTF-8"?>
<svg version="1.1" xmlns="http://www.w3.org/2000/svg" width="139" height="173">
<path d="M0 0 C4.44280198 2.70052669 6.04714627 6.45885364 7.5078125 11.30859375 C8.45798319 16.50436839 8.21941384 21.74219428 8 27 C9.0621875 27.03738281 10.124375 27.07476562 11.21875 27.11328125 C26.08557703 27.75286582 26.08557703 27.75286582 32 31 C35.13425699 34.63978231 35.75903982 38.26111646 36 43 C35.51815948 47.02035683 34.66555769 50.09674314 32.25 53.375 C27.04984246 57.13066934 21.77809357 57.26964777 15.625 57.125 C14.52091797 57.11146484 14.52091797 57.11146484 13.39453125 57.09765625 C11.5962112 57.07430144 9.79806089 57.03843836 8 57 C8.05220703 58.35931641 8.05220703 58.35931641 8.10546875 59.74609375 C8.29267365 68.17031434 8.39046825 75.62520225 3.0625 82.5 C-1.15411702 85.56663056 -5.9091142 85.53188359 -11 85 C-14.41035212 84.07974625 -17.19698951 82.74763045 -19.8125 80.3125 C-23.64759308 72.84416085 -23.22487192 65.19533237 -23 57 C-24.73636719 57.05220703 -24.73636719 57.05220703 -26.5078125 57.10546875 C-28.0468604 57.13362207 -29.58592411 57.16092056 -31.125 57.1875 C-31.88554687 57.21263672 -32.64609375 57.23777344 -33.4296875 57.26367188 C-39.55170873 57.34283594 -43.54425557 56.00337046 -48.375 52.0625 C-50.96107605 47.18874129 -50.59236432 42.39709714 -50 37 C-48.66580549 32.7750507 -47.82222006 31.50732727 -44.0625 29.1875 C-39.07094129 27.25199764 -35.14680184 26.88752961 -29.75 26.9375 C-27.85507812 26.95103516 -27.85507812 26.95103516 -25.921875 26.96484375 C-24.95765625 26.97644531 -23.9934375 26.98804687 -23 27 C-23.02320312 26.32195313 -23.04640625 25.64390625 -23.0703125 24.9453125 C-23.38111344 8.91686397 -23.38111344 8.91686397 -18.5 2.9375 C-12.9880572 -1.33425567 -6.74025086 -0.66464191 0 0 Z " fill="#EF1111" transform="translate(63,14)"/>
<path d="M0 0 C5.10329453 4.68951389 6.73645739 11.23280261 7.375 17.9375 C6.953904 27.52700432 2.99258456 35.50688577 -4 42 C-2.86741487 45.07846278 -1.52743049 47.95971647 0.015625 50.84765625 C0.37914062 51.53537109 0.74265625 52.22308594 1.1171875 52.93164062 C1.87747856 54.36177433 2.64849369 55.78625426 3.4296875 57.20507812 C6.12236576 62.36281615 6.12236576 62.36281615 5.56640625 65.2578125 C3.49053596 67.56663582 1.3003916 69.13303652 -1.3125 70.8125 C-2.72982422 71.75029297 -2.72982422 71.75029297 -4.17578125 72.70703125 C-7.48876712 74.22376475 -8.60090506 74.14849624 -12 73 C-13.45385742 71.18994141 -13.45385742 71.18994141 -14.60546875 68.8515625 C-15.03150391 68.01109375 -15.45753906 67.170625 -15.89648438 66.3046875 C-16.32251953 65.42039062 -16.74855469 64.53609375 -17.1875 63.625 C-18.05496738 61.88751011 -18.92341728 60.15051032 -19.79296875 58.4140625 C-20.1696167 57.6401416 -20.54626465 56.8662207 -20.93432617 56.06884766 C-22.06002968 53.7885052 -22.06002968 53.7885052 -24 51 C-26.58380177 50.74969023 -26.58380177 50.74969023 -29 51 C-29.02505615 51.6612085 -29.0501123 52.32241699 -29.07592773 53.00366211 C-29.19153102 55.98182305 -29.31441754 58.9596392 -29.4375 61.9375 C-29.47681641 62.97841797 -29.51613281 64.01933594 -29.55664062 65.09179688 C-29.59853516 66.08115234 -29.64042969 67.07050781 -29.68359375 68.08984375 C-29.72025146 69.00628662 -29.75690918 69.92272949 -29.79467773 70.86694336 C-30 73 -30 73 -31 74 C-33.84335048 74.09986975 -36.65697163 74.13877881 -39.5 74.125 C-40.29792969 74.12886719 -41.09585938 74.13273437 -41.91796875 74.13671875 C-47.87339233 74.12660767 -47.87339233 74.12660767 -49 73 C-48.98709274 70.07005257 -48.89246761 67.17523174 -48.75 64.25 C-48.70552734 63.28658691 -48.66105469 62.32317383 -48.61523438 61.33056641 C-48.03827131 49.6713941 -47.2632456 38.02315284 -46.5 26.375 C-46.43437866 25.36070923 -46.36875732 24.34641846 -46.30114746 23.3013916 C-46.11079058 20.37514193 -45.91557525 17.44925845 -45.71875 14.5234375 C-45.66144714 13.63778107 -45.60414429 12.75212463 -45.54510498 11.83963013 C-45.26891981 7.81682025 -44.94014909 3.93510903 -44 0 C-10.3775378 -5.787473 -10.3775378 -5.787473 0 0 Z M-21.75 14.9375 C-22.54921875 15.13214844 -23.3484375 15.32679687 -24.171875 15.52734375 C-25.07679687 15.76130859 -25.07679687 15.76130859 -26 16 C-27.7479503 21.24385089 -28.19392201 25.47322267 -28 31 C-23.26463851 30.53574887 -19.69813645 30.09843865 -16 27 C-12.75962359 22.24294382 -12.75962359 22.24294382 -12.3984375 16.74609375 C-12.59695312 16.16988281 -12.79546875 15.59367187 -13 15 C-16.27185553 13.92689142 -18.42947592 14.10736898 -21.75 14.9375 Z " fill="#5371F8" transform="translate(127,84)"/>
<path d="M0 0 C4.44280198 2.70052669 6.04714627 6.45885364 7.5078125 11.30859375 C8.45798319 16.50436839 8.21941384 21.74219428 8 27 C9.0621875 27.03738281 10.124375 27.07476562 11.21875 27.11328125 C26.08557703 27.75286582 26.08557703 27.75286582 32 31 C35.11771692 34.62057449 35.74275423 38.28382755 36 43 C35.0625 45.4375 35.0625 45.4375 34 47 C33.34 47 32.68 47 32 47 C32 43.7 32 40.4 32 37 C31.34 37 30.68 37 30 37 C30 36.01 30 35.02 30 34 C28.98631348 34.00785522 28.98631348 34.00785522 27.95214844 34.01586914 C24.88477511 34.03668007 21.81741667 34.04967329 18.75 34.0625 C17.15478516 34.07506836 17.15478516 34.07506836 15.52734375 34.08789062 C14.50253906 34.09111328 13.47773437 34.09433594 12.421875 34.09765625 C11.47924805 34.10289307 10.53662109 34.10812988 9.56542969 34.11352539 C7.21876563 34.00968082 5.24355522 33.66706529 3 33 C2.9498877 32.2479126 2.89977539 31.4958252 2.84814453 30.72094727 C2.616951 27.33404062 2.37117677 23.94834912 2.125 20.5625 C2.04636719 19.37849609 1.96773437 18.19449219 1.88671875 16.97460938 C1.80292969 15.84990234 1.71914062 14.72519531 1.6328125 13.56640625 C1.55949707 12.52427979 1.48618164 11.48215332 1.41064453 10.40844727 C1.27513184 9.61365967 1.13961914 8.81887207 1 8 C0.34 7.67 -0.32 7.34 -1 7 C-1 6.34 -1 5.68 -1 5 C-2.79258558 5.08693141 -4.58415144 5.19510504 -6.375 5.3125 C-7.37273438 5.37050781 -8.37046875 5.42851562 -9.3984375 5.48828125 C-10.25695313 5.65714844 -11.11546875 5.82601563 -12 6 C-12.66 6.99 -13.32 7.98 -14 9 C-14.99 9 -15.98 9 -17 9 C-16.99214478 9.99181274 -16.99214478 9.99181274 -16.98413086 11.00366211 C-16.96342344 13.98159851 -16.95035988 16.95951982 -16.9375 19.9375 C-16.92912109 20.97841797 -16.92074219 22.01933594 -16.91210938 23.09179688 C-16.90727539 24.57583008 -16.90727539 24.57583008 -16.90234375 26.08984375 C-16.89448853 27.46450806 -16.89448853 27.46450806 -16.88647461 28.86694336 C-17 31 -17 31 -18 32 C-20.14386657 32.15858842 -22.29266838 32.25129298 -24.44140625 32.31640625 C-26.39916992 32.37924805 -26.39916992 32.37924805 -28.39648438 32.44335938 C-29.7851533 32.48317608 -31.17382522 32.52288825 -32.5625 32.5625 C-33.95509183 32.60567989 -35.34767028 32.649294 -36.74023438 32.69335938 C-40.16004801 32.79985876 -43.57993763 32.90186923 -47 33 C-47 32.34 -47 31.68 -47 31 C-40.79243449 27.75513621 -36.77193644 26.87248207 -29.75 26.9375 C-27.85507812 26.95103516 -27.85507812 26.95103516 -25.921875 26.96484375 C-24.95765625 26.97644531 -23.9934375 26.98804687 -23 27 C-23.02320312 26.32195313 -23.04640625 25.64390625 -23.0703125 24.9453125 C-23.38111344 8.91686397 -23.38111344 8.91686397 -18.5 2.9375 C-12.9880572 -1.33425567 -6.74025086 -0.66464191 0 0 Z " fill="#E4484A" transform="translate(63,14)"/>
<path d="M0 0 C0.33 0 0.66 0 1 0 C1 3.3 1 6.6 1 10 C1.99 9.67 2.98 9.34 4 9 C3.66277668 12.03500987 3.19548997 13.74658707 1.3125 16.1875 C-3.80263034 20.19665622 -9.16959568 20.2708775 -15.375 20.125 C-16.47908203 20.11146484 -16.47908203 20.11146484 -17.60546875 20.09765625 C-19.4037888 20.07430144 -21.20193911 20.03843836 -23 20 C-22.94779297 21.35931641 -22.94779297 21.35931641 -22.89453125 22.74609375 C-22.70732635 31.17031434 -22.60953175 38.62520225 -27.9375 45.5 C-32.15411702 48.56663056 -36.9091142 48.53188359 -42 48 C-45.41035212 47.07974625 -48.19698951 45.74763045 -50.8125 43.3125 C-54.64759308 35.84416085 -54.22487192 28.19533237 -54 20 C-53.01 19.67 -52.02 19.34 -51 19 C-50.67 18.01 -50.34 17.02 -50 16 C-49.34 16 -48.68 16 -48 16 C-47.97283911 19.02089478 -47.95308343 22.04154129 -47.9375 25.0625 C-47.92912109 25.91005859 -47.92074219 26.75761719 -47.91210938 27.63085938 C-47.89316994 32.5361722 -48.16673655 37.16444755 -49 42 C-47.68 42.66 -46.36 43.32 -45 44 C-45 44.66 -45 45.32 -45 46 C-40.05 45.67 -35.1 45.34 -30 45 C-30.33 43.02 -30.66 41.04 -31 39 C-31.33 39.66 -31.66 40.32 -32 41 C-32.66 41 -33.32 41 -34 41 C-33.34 39.68 -32.68 38.36 -32 37 C-31.34 37 -30.68 37 -30 37 C-30.00785522 36.15236084 -30.00785522 36.15236084 -30.01586914 35.28759766 C-30.03662422 32.7334097 -30.0496554 30.17923947 -30.0625 27.625 C-30.07087891 26.73554687 -30.07925781 25.84609375 -30.08789062 24.9296875 C-30.09272461 23.65351562 -30.09272461 23.65351562 -30.09765625 22.3515625 C-30.10551147 21.17327881 -30.10551147 21.17327881 -30.11352539 19.97119141 C-30 18 -30 18 -29 16 C-28.01 16 -27.02 16 -26 16 C-26 16.66 -26 17.32 -26 18 C-20.72 17.67 -15.44 17.34 -10 17 C-10 16.01 -10 15.02 -10 14 C-9.34 14 -8.68 14 -8 14 C-8 14.66 -8 15.32 -8 16 C-6.02 15.67 -4.04 15.34 -2 15 C-1.34 10.05 -0.68 5.1 0 0 Z " fill="#D62423" transform="translate(94,51)"/>
<path d="M0 0 C3.63 0 7.26 0 11 0 C11 0.66 11 1.32 11 2 C9.68 2.33 8.36 2.66 7 3 C7 3.99 7 4.98 7 6 C6.01 6.66 5.02 7.32 4 8 C3.27034634 10.56282742 3.27034634 10.56282742 3 13 C2.34 13 1.68 13 1 13 C1 13.66 1 14.32 1 15 C0.34 15 -0.32 15 -1 15 C-1.04898438 15.59167969 -1.09796875 16.18335937 -1.1484375 16.79296875 C-1.22320312 17.58316406 -1.29796875 18.37335937 -1.375 19.1875 C-1.44460937 19.96480469 -1.51421875 20.74210937 -1.5859375 21.54296875 C-2 24 -2 24 -4 29 C-11.26 28.67 -18.52 28.34 -26 28 C-26 28.66 -26 29.32 -26 30 C-27.98 30.66 -29.96 31.32 -32 32 C-32.33 36.29 -32.66 40.58 -33 45 C-32.34 45 -31.68 45 -31 45 C-30.731875 45.639375 -30.46375 46.27875 -30.1875 46.9375 C-29.11332248 49.33131686 -29.11332248 49.33131686 -26 50 C-23.43365139 50.22718496 -20.88321893 50.41608184 -18.3125 50.5625 C-17.2596582 50.62727539 -17.2596582 50.62727539 -16.18554688 50.69335938 C-14.45724794 50.7991736 -12.7286489 50.90006581 -11 51 C-11 51.33 -11 51.66 -11 52 C-13.70894767 52.08144943 -16.41541263 52.14070614 -19.125 52.1875 C-19.88554687 52.21263672 -20.64609375 52.23777344 -21.4296875 52.26367188 C-27.55170873 52.34283594 -31.54425557 51.00337046 -36.375 47.0625 C-39.18574325 41.76533003 -38.8754655 35.44933407 -37.4140625 29.69140625 C-36 28 -36 28 -33.12109375 27.28515625 C-31.74952401 27.16318362 -30.37508261 27.0723096 -29 27 C-28.10039551 26.9469873 -27.20079102 26.89397461 -26.27392578 26.83935547 C-23.20401994 26.67936528 -20.13435612 26.55381485 -17.0625 26.4375 C-15.46438477 26.37272461 -15.46438477 26.37272461 -13.83398438 26.30664062 C-11.22278231 26.20125579 -8.61140644 26.10019274 -6 26 C-5.67 18.74 -5.34 11.48 -5 4 C-4.01 4 -3.02 4 -2 4 C-1.34 2.68 -0.68 1.36 0 0 Z " fill="#F51919" transform="translate(51,19)"/>
<path d="M0 0 C5.13052579 5.13052579 5.11739607 9.94949 5.125 16.9375 C5.09310129 18.95851112 5.05469084 20.9794772 5 23 C6.62808594 23.07347656 6.62808594 23.07347656 8.2890625 23.1484375 C9.73439784 23.22351986 11.17970919 23.29906528 12.625 23.375 C13.33785156 23.4059375 14.05070312 23.436875 14.78515625 23.46875 C19.17152608 23.71020155 22.8594834 24.39342731 27 26 C23.89126369 28.07249087 23.21440452 28.24964613 19.69140625 28.23046875 C18.86189453 28.22853516 18.03238281 28.22660156 17.17773438 28.22460938 C15.88319336 28.20624023 15.88319336 28.20624023 14.5625 28.1875 C13.70333984 28.18685547 12.84417969 28.18621094 11.95898438 28.18554688 C8.019281 28.15803925 4.86584948 27.96646237 1 27 C0.67 18.09 0.34 9.18 0 0 Z " fill="#E66968" transform="translate(66,18)"/>
<path d="M0 0 C0.7425 0.185625 1.485 0.37125 2.25 0.5625 C6.67146953 1.07833811 10.68846148 0.65561826 15.09765625 0.15625 C17.95189581 0.00258973 20.23853916 0.31090151 23 1 C23 5 23 5 21.98828125 6.7578125 C18.85935696 8.71262178 15.72221769 8.16982686 12.1875 7.875 C11.48818359 7.83890625 10.78886719 7.8028125 10.06835938 7.765625 C5.43024967 7.435881 2.08810027 6.37456374 -2 4 C-1.34 2.68 -0.68 1.36 0 0 Z " fill="#D50E0B" transform="translate(21,63)"/>
<path d="M0 0 C0.99 0.33 1.98 0.66 3 1 C3 6.28 3 11.56 3 17 C3.66 17 4.32 17 5 17 C5.4021875 17.9590625 5.4021875 17.9590625 5.8125 18.9375 C6.88667752 21.33131686 6.88667752 21.33131686 10 22 C12.56634861 22.22718496 15.11678107 22.41608184 17.6875 22.5625 C18.38939453 22.60568359 19.09128906 22.64886719 19.81445312 22.69335938 C21.54275206 22.7991736 23.2713511 22.90006581 25 23 C25 23.33 25 23.66 25 24 C22.29105233 24.08144943 19.58458737 24.14070614 16.875 24.1875 C16.11445313 24.21263672 15.35390625 24.23777344 14.5703125 24.26367188 C8.44829127 24.34283594 4.45574443 23.00337046 -0.375 19.0625 C-2.91427906 14.27693562 -2.62837093 9.31192637 -2 4 C-0.9765625 1.62890625 -0.9765625 1.62890625 0 0 Z " fill="#E73335" transform="translate(15,47)"/>
<path d="M0 0 C0.33 0 0.66 0 1 0 C1 3.3 1 6.6 1 10 C1.99 9.67 2.98 9.34 4 9 C3.66277668 12.03500987 3.19548997 13.74658707 1.3125 16.1875 C-3.9451006 20.3083221 -9.50377538 20.26538292 -15.875 20.125 C-17.050625 20.11146484 -17.050625 20.11146484 -18.25 20.09765625 C-20.16680055 20.07428063 -22.08344191 20.03841653 -24 20 C-24.33 19.34 -24.66 18.68 -25 18 C-20.05 17.67 -15.1 17.34 -10 17 C-10 16.01 -10 15.02 -10 14 C-9.34 14 -8.68 14 -8 14 C-8 14.66 -8 15.32 -8 16 C-6.02 15.67 -4.04 15.34 -2 15 C-1.34 10.05 -0.68 5.1 0 0 Z " fill="#C12120" transform="translate(94,51)"/>
<path d="M0 0 C0.66 0 1.32 0 2 0 C2.02895976 3.12498063 2.04678483 6.2499269 2.0625 9.375 C2.07087891 10.26445313 2.07925781 11.15390625 2.08789062 12.0703125 C2.09111328 12.92109375 2.09433594 13.771875 2.09765625 14.6484375 C2.10289307 15.43395996 2.10812988 16.21948242 2.11352539 17.02880859 C2 19 2 19 1 21 C0.34 21 -0.32 21 -1 21 C-1 19.35 -1 17.7 -1 16 C-1.99 16 -2.98 16 -4 16 C-4 12.04 -4 8.08 -4 4 C-3.01 3.67 -2.02 3.34 -1 3 C-0.67 2.01 -0.34 1.02 0 0 Z " fill="#F04244" transform="translate(44,67)"/>
<path d="M0 0 C3.19007507 2.94535698 4.35704995 5.74322727 5 10 C5.15524967 14.00644297 5.11843429 17.99297319 5 22 C4.34 22 3.68 22 3 22 C3 22.66 3 23.32 3 24 C2.34 24 1.68 24 1 24 C0.3533402 15.98603754 -0.16677223 8.04212755 0 0 Z " fill="#F6878D" transform="translate(66,18)"/>
<path d="M0 0 C3.875 1.875 3.875 1.875 5 3 C5.55779397 10.80911562 5.82578785 18.92755732 2 26 C1.34 26.33 0.68 26.66 0 27 C0.45822468 23.53058454 0.89131683 20.32604951 2 17 C1.67 16.34 1.34 15.68 1 15 C0.76827173 12.45384991 0.58105471 9.92603775 0.4375 7.375 C0.39431641 6.66859375 0.35113281 5.9621875 0.30664062 5.234375 C0.20055249 3.48981463 0.09977111 1.74493303 0 0 Z " fill="#DF4F53" transform="translate(66,68)"/>
<path d="M0 0 C0.33 0 0.66 0 1 0 C1 2.31 1 4.62 1 7 C-1.88415883 8.44207941 -4.41721528 8.09394887 -7.625 8.0625 C-8.81351563 8.05347656 -10.00203125 8.04445313 -11.2265625 8.03515625 C-12.14179687 8.02355469 -13.05703125 8.01195313 -14 8 C-13.67 6.35 -13.34 4.7 -13 3 C-9.04 3 -5.08 3 -1 3 C-0.67 2.01 -0.34 1.02 0 0 Z " fill="#D5100E" transform="translate(63,89)"/>
<path d="M0 0 C0.33 0 0.66 0 1 0 C1.19390729 2.31197155 1.37996367 4.6246029 1.5625 6.9375 C1.66691406 8.22527344 1.77132812 9.51304688 1.87890625 10.83984375 C1.91886719 11.88269531 1.95882812 12.92554687 2 14 C1.67 14.33 1.34 14.66 1 15 C0.84235595 16.77869726 0.74899323 18.56318476 0.68359375 20.34765625 C0.64169922 21.42724609 0.59980469 22.50683594 0.55664062 23.61914062 C0.51732422 24.75544922 0.47800781 25.89175781 0.4375 27.0625 C0.39431641 28.20267578 0.35113281 29.34285156 0.30664062 30.51757812 C0.20017161 33.34492195 0.09815793 36.17235738 0 39 C0.66 39.33 1.32 39.66 2 40 C0.68 40.66 -0.64 41.32 -2 42 C-2.14466549 32.51335984 -1.708067 23.14593558 -1 13.6875 C-0.90322072 12.34964006 -0.80686455 11.01174944 -0.7109375 9.67382812 C-0.47809028 6.44889414 -0.24104741 3.22432962 0 0 Z " fill="#596FD8" transform="translate(81,105)"/>
<path d="M0 0 C0.33 0 0.66 0 1 0 C1 7.92 1 15.84 1 24 C0.01 23.67 -0.98 23.34 -2 23 C-2.3690205 7.25512528 -2.3690205 7.25512528 0 0 Z " fill="#FE777D" transform="translate(44,21)"/>
<path d="M0 0 C1.24007812 -0.01675781 2.48015625 -0.03351562 3.7578125 -0.05078125 C4.78648438 0.06910156 5.81515625 0.18898438 6.875 0.3125 C7.535 1.3025 8.195 2.2925 8.875 3.3125 C7.55435547 3.40337891 7.55435547 3.40337891 6.20703125 3.49609375 C4.46486328 3.62177734 4.46486328 3.62177734 2.6875 3.75 C0.96466797 3.87181641 0.96466797 3.87181641 -0.79296875 3.99609375 C-3.64098171 4.26653812 -6.33710482 4.68771747 -9.125 5.3125 C-9.125 4.6525 -9.125 3.9925 -9.125 3.3125 C-9.785 2.9825 -10.445 2.6525 -11.125 2.3125 C-7.46771489 0.0060212 -4.26128693 0.01334432 0 0 Z " fill="#E87674" transform="translate(56.125,13.6875)"/>
<path d="M0 0 C3.96 0 7.92 0 12 0 C12.33 1.32 12.66 2.64 13 4 C10.59454362 5.20272819 9.05003047 5.10071472 6.375 5.0625 C5.14910156 5.04896484 5.14910156 5.04896484 3.8984375 5.03515625 C2.95871094 5.01775391 2.95871094 5.01775391 2 5 C2 4.34 2 3.68 2 3 C1.34 3 0.68 3 0 3 C0 2.01 0 1.02 0 0 Z " fill="#D30F0B" transform="translate(66,64)"/>
<path d="M0 0 C0.99 0.33 1.98 0.66 3 1 C4.10102642 9.35600408 4.10094304 17.58807963 4 26 C5.32 26 6.64 26 8 26 C7.67 26.66 7.34 27.32 7 28 C5.68 27.67 4.36 27.34 3 27 C2.67 24.69 2.34 22.38 2 20 C0.68 19.67 -0.64 19.34 -2 19 C-1.26523437 18.19755859 -1.26523437 18.19755859 -0.515625 17.37890625 C1.40489456 14.36448251 1.33787623 12.48330589 1.25 8.9375 C1.23453125 7.89464844 1.2190625 6.85179687 1.203125 5.77734375 C1.10832623 2.91466716 1.10832623 2.91466716 0 0 Z " fill="#F11C1F" transform="translate(62,21)"/>
<path d="M0 0 C0.66 0 1.32 0 2 0 C2.38218767 1.65614657 2.71395102 3.32457024 3 5 C2.67 5.33 2.34 5.66 2 6 C1.84259395 7.70563778 1.74906608 9.41727244 1.68359375 11.12890625 C1.64169922 12.16337891 1.59980469 13.19785156 1.55664062 14.26367188 C1.51732422 15.35228516 1.47800781 16.44089844 1.4375 17.5625 C1.37272461 19.2012207 1.37272461 19.2012207 1.30664062 20.87304688 C1.20017932 23.58189564 1.09816484 26.29083992 1 29 C0.01 28.67 -0.98 28.34 -2 28 C-2.33 26.35 -2.66 24.7 -3 23 C-2.34 23 -1.68 23 -1 23 C-1.00523682 22.3387915 -1.01047363 21.67758301 -1.01586914 20.99633789 C-1.03657656 18.01840149 -1.04964012 15.04048018 -1.0625 12.0625 C-1.07087891 11.02158203 -1.07925781 9.98066406 -1.08789062 8.90820312 C-1.09272461 7.42416992 -1.09272461 7.42416992 -1.09765625 5.91015625 C-1.10289307 4.99371338 -1.10812988 4.07727051 -1.11352539 3.13305664 C-1 1 -1 1 0 0 Z " fill="#F31F1D" transform="translate(46,65)"/>
<path d="M0 0 C0.99 0.33 1.98 0.66 3 1 C2.67 4.63 2.34 8.26 2 12 C1.01 12.33 0.02 12.66 -1 13 C-1.33 13.66 -1.66 14.32 -2 15 C-2.05429959 13.25034642 -2.09292823 11.50020213 -2.125 9.75 C-2.15980469 8.28820312 -2.15980469 8.28820312 -2.1953125 6.796875 C-1.99862781 3.9803502 -1.44568916 2.39050964 0 0 Z " fill="#E36A6E" transform="translate(15,47)"/>
<path d="M0 0 C2.31 0 4.62 0 7 0 C7 0.66 7 1.32 7 2 C7.66 2 8.32 2 9 2 C9 2.66 9 3.32 9 4 C8.01 4.495 8.01 4.495 7 5 C7 5.66 7 6.32 7 7 C6.01 7 5.02 7 4 7 C4 6.01 4 5.02 4 4 C2.68 4.33 1.36 4.66 0 5 C-0.33 4.01 -0.66 3.02 -1 2 C-0.67 1.34 -0.34 0.68 0 0 Z " fill="#5C79FD" transform="translate(115,94)"/>
<path d="M0 0 C2.65561386 1.96284503 3.03313844 3.14020111 3.8125 6.4375 C3.99303187 9.86760546 3.88646445 11.22578757 2 14 C1.34 14 0.68 14 0 14 C-0.19393875 11.85473901 -0.37998676 9.70876323 -0.5625 7.5625 C-0.71912109 5.77005859 -0.71912109 5.77005859 -0.87890625 3.94140625 C-0.91886719 2.97074219 -0.95882812 2.00007813 -1 1 C-0.67 0.67 -0.34 0.34 0 0 Z " fill="#ED838A" transform="translate(95,47)"/>
<path d="M0 0 C0.99 0 1.98 0 3 0 C3 0.66 3 1.32 3 2 C3.66 2.33 4.32 2.66 5 3 C4.01 4.485 4.01 4.485 3 6 C2.6336141 8.41713479 2.6336141 8.41713479 2.5859375 11.10546875 C2.54726563 12.08837891 2.50859375 13.07128906 2.46875 14.08398438 C2.4378125 15.10814453 2.406875 16.13230469 2.375 17.1875 C2.33632813 18.22326172 2.29765625 19.25902344 2.2578125 20.32617188 C2.16351704 22.88393622 2.07791798 25.44169287 2 28 C1.67 28 1.34 28 1 28 C0.67 18.76 0.34 9.52 0 0 Z " fill="#F24B4A" transform="translate(44,17)"/>
<path d="M0 0 C0.9583374 0.00523682 1.9166748 0.01047363 2.90405273 0.01586914 C4.45576172 0.02070312 4.45576172 0.02070312 6.03881836 0.02563477 C7.12743164 0.03401367 8.21604492 0.04239258 9.33764648 0.05102539 C10.97636719 0.05779297 10.97636719 0.05779297 12.64819336 0.06469727 C15.35723144 0.07652713 18.06616248 0.09300996 20.77514648 0.11352539 C20.77514648 0.44352539 20.77514648 0.77352539 20.77514648 1.11352539 C15.82514648 1.11352539 10.87514648 1.11352539 5.77514648 1.11352539 C5.77514648 1.77352539 5.77514648 2.43352539 5.77514648 3.11352539 C3.46514648 3.77352539 1.15514648 4.43352539 -1.22485352 5.11352539 C-1.22485352 4.12352539 -1.22485352 3.13352539 -1.22485352 2.11352539 C-1.88485352 1.78352539 -2.54485352 1.45352539 -3.22485352 1.11352539 C-2.22485352 0.11352539 -2.22485352 0.11352539 0 0 Z " fill="#F43534" transform="translate(19.224853515625,45.886474609375)"/>
<path d="M0 0 C0 0.99 0 1.98 0 3 C-1.98 3.33 -3.96 3.66 -6 4 C-6 3.34 -6 2.68 -6 2 C-6.66 2 -7.32 2 -8 2 C-8 2.99 -8 3.98 -8 5 C-8.99 5 -9.98 5 -11 5 C-11 3.68 -11 2.36 -11 1 C-6.92630576 -1.03684712 -4.41062136 -1.0257259 0 0 Z " fill="#D20F0A" transform="translate(92,63)"/>
<path d="M0 0 C0.33 0.66 0.66 1.32 1 2 C1.66 2 2.32 2 3 2 C3 5.96 3 9.92 3 14 C2.01 14 1.02 14 0 14 C0 9.38 0 4.76 0 0 Z " fill="#E59AA1" transform="translate(68,26)"/>
<path d="M0 0 C1.46373047 0.02707031 1.46373047 0.02707031 2.95703125 0.0546875 C3.69308594 0.07789063 4.42914063 0.10109375 5.1875 0.125 C5.1875 0.785 5.1875 1.445 5.1875 2.125 C-0.0925 2.785 -5.3725 3.445 -10.8125 4.125 C-10.8125 3.465 -10.8125 2.805 -10.8125 2.125 C-7.04027911 0.37336544 -4.145861 -0.09990027 0 0 Z " fill="#FC6D6C" transform="translate(29.8125,42.875)"/>
<path d="M0 0 C0.33 0 0.66 0 1 0 C1.06058594 0.94101563 1.12117188 1.88203125 1.18359375 2.8515625 C1.26738281 4.09679687 1.35117188 5.34203125 1.4375 6.625 C1.55931641 8.46964844 1.55931641 8.46964844 1.68359375 10.3515625 C1.94230363 13.95814957 1.94230363 13.95814957 2.5859375 17.31640625 C3.05599015 20.36287957 2.75398675 21.50749251 1 24 C0.34 24.33 -0.32 24.66 -1 25 C-0.67 16.75 -0.34 8.5 0 0 Z " fill="#F83335" transform="translate(66,69)"/>
<path d="M0 0 C0.33 0 0.66 0 1 0 C1 3.3 1 6.6 1 10 C1.99 9.67 2.98 9.34 4 9 C3.5206753 13.31392226 2.2542015 15.16569547 -1 18 C-1.99 17.67 -2.98 17.34 -4 17 C-3.01 16.67 -2.02 16.34 -1 16 C-0.67 10.72 -0.34 5.44 0 0 Z " fill="#D23F43" transform="translate(94,51)"/>
<path d="M0 0 C0.99 0.33 1.98 0.66 3 1 C2.67 1.99 2.34 2.98 2 4 C-1.69308976 5.23102992 -4.88050712 4.87175152 -8.6875 4.5625 C-9.7403418 4.48418945 -9.7403418 4.48418945 -10.81445312 4.40429688 C-12.54338054 4.27492135 -14.27175355 4.13817469 -16 4 C-16 3.67 -16 3.34 -16 3 C-15.18015625 2.95101562 -14.3603125 2.90203125 -13.515625 2.8515625 C-12.43796875 2.77679688 -11.3603125 2.70203125 -10.25 2.625 C-9.18265625 2.55539063 -8.1153125 2.48578125 -7.015625 2.4140625 C-4.04704847 2.17103642 -4.04704847 2.17103642 -1.796875 0.8984375 C-0.90742187 0.45371094 -0.90742187 0.45371094 0 0 Z " fill="#CB1712" transform="translate(41,66)"/>
<path d="M0 0 C3.3125 -0.1875 3.3125 -0.1875 7 0 C7.99 0.99 8.98 1.98 10 3 C4.39 3 -1.22 3 -7 3 C-7 2.67 -7 2.34 -7 2 C-4.69 2 -2.38 2 0 2 C0 1.34 0 0.68 0 0 Z " fill="#FC5050" transform="translate(35,43)"/>
<path d="M0 0 C2 2 2 2 2 4 C2.66 4.33 3.32 4.66 4 5 C3.34 5.66 2.68 6.32 2 7 C1.01 6.67 0.02 6.34 -1 6 C-1.33 5.34 -1.66 4.68 -2 4 C-3.65 4 -5.3 4 -7 4 C-6.67 3.01 -6.34 2.02 -6 1 C-3.125 0.375 -3.125 0.375 0 0 Z " fill="#4E66EE" transform="translate(105,131)"/>
<path d="M0 0 C2.76276177 0.52268466 5.3260876 1.10869587 8 2 C10.56634861 2.22718496 13.11678107 2.41608184 15.6875 2.5625 C16.38939453 2.60568359 17.09128906 2.64886719 17.81445312 2.69335938 C19.54275206 2.7991736 21.2713511 2.90006581 23 3 C23 3.33 23 3.66 23 4 C20.29105233 4.08144943 17.58458737 4.14070614 14.875 4.1875 C13.73417969 4.22520508 13.73417969 4.22520508 12.5703125 4.26367188 C7.5975739 4.32797453 4.36383518 3.65594442 0 1 C0 0.67 0 0.34 0 0 Z " fill="#AB2F30" transform="translate(17,67)"/>
<path d="M0 0 C2.475 0.495 2.475 0.495 5 1 C4.67 3.31 4.34 5.62 4 8 C4.66 8 5.32 8 6 8 C6 8.66 6 9.32 6 10 C4.68 10 3.36 10 2 10 C2.33 8.02 2.66 6.04 3 4 C2.01 3.67 1.02 3.34 0 3 C0 2.01 0 1.02 0 0 Z " fill="#607EFE" transform="translate(111,117)"/>
<path d="M0 0 C0.33 0.99 0.66 1.98 1 3 C1.763125 2.938125 2.52625 2.87625 3.3125 2.8125 C6 3 6 3 7.8125 4.5 C8.204375 4.995 8.59625 5.49 9 6 C1.57142857 6.14285714 1.57142857 6.14285714 -2 5 C-2 4.01 -2 3.02 -2 2 C-1.34 2 -0.68 2 0 2 C0 1.34 0 0.68 0 0 Z " fill="#F96263" transform="translate(69,40)"/>
<path d="M0 0 C0.33 0 0.66 0 1 0 C1.33 2.97 1.66 5.94 2 9 C2.33 9 2.66 9 3 9 C3 11.31 3 13.62 3 16 C2.01 15.67 1.02 15.34 0 15 C0 10.05 0 5.1 0 0 Z " fill="#F6696C" transform="translate(42,29)"/>
<path d="M0 0 C3 3.75 3 3.75 3 6 C0 8 0 8 -3 8 C-2.625 6.0625 -2.625 6.0625 -2 4 C-1.34 3.67 -0.68 3.34 0 3 C0 2.01 0 1.02 0 0 Z " fill="#5770EA" transform="translate(127,137)"/>
<path d="M0 0 C0.33 0.66 0.66 1.32 1 2 C-1.31 2.66 -3.62 3.32 -6 4 C-6.33 3.34 -6.66 2.68 -7 2 C-5.26578631 -1.46842738 -3.40984787 -1.13661596 0 0 Z " fill="#4463F8" transform="translate(85,154)"/>
<path d="M0 0 C1.65 1.32 3.3 2.64 5 4 C3.35 4.66 1.7 5.32 0 6 C-0.38218767 4.34385343 -0.71395102 2.67542976 -1 1 C-0.67 0.67 -0.34 0.34 0 0 Z " fill="#5472E8" transform="translate(121,150)"/>
<path d="M0 0 C2.32590854 3.63423209 2.16265833 6.77088331 2 11 C1.34 11 0.68 11 0 11 C0 9.35 0 7.7 0 6 C-0.66 5.67 -1.32 5.34 -2 5 C-1.34 3.35 -0.68 1.7 0 0 Z " fill="#6785FB" transform="translate(130,101)"/>
<path d="M0 0 C0.99 0.99 1.98 1.98 3 3 C2 6 2 6 0 10 C0 6.7 0 3.4 0 0 Z " fill="#E16E6F" transform="translate(66,18)"/>
</svg>
