<?xml version="1.0" encoding="UTF-8"?>
<svg xmlns="http://www.w3.org/2000/svg" xmlns:xlink="http://www.w3.org/1999/xlink" version="1.1" id="Capa_1" x="0px" y="0px" viewBox="0 0 512 512" style="enable-background:new 0 0 512 512;" xml:space="preserve" width="512" height="512">
<g>
	<path style="fill:none;stroke:#000000;stroke-width:15;stroke-linecap:round;stroke-linejoin:round;stroke-miterlimit:10;" d="&#10;&#9;&#9;M215.593,224.659v21.239c0,30.689,12.435,58.468,32.547,78.57c9.011,9.021,19.567,16.486,31.234,21.981"/>
	<path style="fill:none;stroke:#000000;stroke-width:15;stroke-linecap:round;stroke-linejoin:round;stroke-miterlimit:10;" d="&#10;&#9;&#9;M374.047,346.45c37.689-17.769,63.782-56.115,63.782-100.552V224.66"/>
	
		<line style="fill:none;stroke:#000000;stroke-width:15;stroke-linecap:round;stroke-linejoin:round;stroke-miterlimit:10;" x1="392.954" y1="395.321" x2="260.469" y2="395.321"/>
	<path style="fill:none;stroke:#000000;stroke-width:15;stroke-linecap:round;stroke-linejoin:round;stroke-miterlimit:10;" d="&#10;&#9;&#9;M235.797,177.763h30.305c33.477,0,60.61-27.133,60.61-60.61c0,33.477,27.133,60.61,60.61,60.61h30.305"/>
	<path style="fill:none;stroke:#000000;stroke-width:15;stroke-linecap:round;stroke-linejoin:round;stroke-miterlimit:10;" d="&#10;&#9;&#9;M422.81,62.81c9.55,16.4,15.02,35.47,15.02,55.81v45.08"/>
	<path style="fill:none;stroke:#000000;stroke-width:15;stroke-linecap:round;stroke-linejoin:round;stroke-miterlimit:10;" d="&#10;&#9;&#9;M215.59,163.7v-45.08c0-30.69,12.44-58.47,32.55-78.57c20.1-20.11,47.88-32.55,78.57-32.55c28.45,0,54.39,10.69,74.04,28.27"/>
	<path style="fill:none;stroke:#000000;stroke-width:15;stroke-linecap:round;stroke-linejoin:round;stroke-miterlimit:10;" d="&#10;&#9;&#9;M227.716,226.008h8.081v-64.65h-8.081c-17.853,0-32.325,14.472-32.325,32.325v0C195.39,211.536,209.863,226.008,227.716,226.008z"/>
	<path style="fill:none;stroke:#000000;stroke-width:15;stroke-linecap:round;stroke-linejoin:round;stroke-miterlimit:10;" d="&#10;&#9;&#9;M235.797,193.683v32.325c0,50.211,40.704,90.915,90.915,90.915h0c50.211,0,90.915-40.704,90.915-90.915l0-32.325"/>
	
		<line style="fill:none;stroke:#000000;stroke-width:15;stroke-linecap:round;stroke-linejoin:round;stroke-miterlimit:10;" x1="437.829" y1="504.5" x2="437.829" y2="484.297"/>
	
		<line style="fill:none;stroke:#000000;stroke-width:15;stroke-linecap:round;stroke-linejoin:round;stroke-miterlimit:10;" x1="215.593" y1="504.5" x2="215.593" y2="484.297"/>
	<path style="fill:none;stroke:#000000;stroke-width:15;stroke-linecap:round;stroke-linejoin:round;stroke-miterlimit:10;" d="&#10;&#9;&#9;M425.707,226.008h-8.081v-64.65h8.081c17.853,0,32.325,14.472,32.325,32.325v0C458.032,211.536,443.56,226.008,425.707,226.008z"/>
	<g>
		
			<polyline style="fill:none;stroke:#000000;stroke-width:15;stroke-linecap:round;stroke-linejoin:round;stroke-miterlimit:10;" points="&#10;&#9;&#9;&#9;498.44,484.91 498.44,504.5 154.98,504.5 154.98,496.09 &#9;&#9;"/>
		<path style="fill:none;stroke:#000000;stroke-width:15;stroke-linecap:round;stroke-linejoin:round;stroke-miterlimit:10;" d="&#10;&#9;&#9;&#9;M364.09,344.2l71.31,16.09c36.87,8.3,63.04,41.04,63.04,78.82v10.8"/>
		<path style="fill:none;stroke:#000000;stroke-width:15;stroke-linecap:round;stroke-linejoin:round;stroke-miterlimit:10;" d="&#10;&#9;&#9;&#9;M289.335,308.912v35.285l-71.317,16.092c-3.667,0.828-7.223,1.889-10.657,3.182"/>
		
			<line style="fill:none;stroke:#000000;stroke-width:15;stroke-linecap:round;stroke-linejoin:round;stroke-miterlimit:10;" x1="364.087" y1="344.197" x2="364.087" y2="308.912"/>
	</g>
	
		<line style="fill:none;stroke:#000000;stroke-width:15;stroke-linecap:round;stroke-linejoin:round;stroke-miterlimit:10;" x1="240.009" y1="355.323" x2="316.315" y2="504.5"/>
	
		<line style="fill:none;stroke:#000000;stroke-width:15;stroke-linecap:round;stroke-linejoin:round;stroke-miterlimit:10;" x1="413.413" y1="355.323" x2="337.107" y2="504.5"/>
	<path style="fill:none;stroke:#000000;stroke-width:15;stroke-linecap:round;stroke-linejoin:round;stroke-miterlimit:10;" d="&#10;&#9;&#9;M71.64,312.03c13.03-6.13,27.58-9.56,42.94-9.56c55.79,0,101.01,45.22,101.01,101.01S170.37,504.5,114.58,504.5&#10;&#9;&#9;S13.56,459.27,13.56,403.48c0-27.86,11.28-53.09,29.52-71.36"/>
	<path style="fill:none;stroke:#000000;stroke-width:15;stroke-linecap:round;stroke-linejoin:round;stroke-miterlimit:10;" d="&#10;&#9;&#9;M154.984,369.138h15.948c6.204,0,11.736,3.906,13.812,9.752l0,0c1.568,4.414,0.931,9.311-1.712,13.178l-10.611,15.52"/>
	
		<circle style="fill:none;stroke:#000000;stroke-width:15;stroke-linecap:round;stroke-linejoin:round;stroke-miterlimit:10;" cx="172.421" cy="421.73" r="14.142"/>
	<path style="fill:none;stroke:#000000;stroke-width:15;stroke-linecap:round;stroke-linejoin:round;stroke-miterlimit:10;" d="&#10;&#9;&#9;M74.171,369.138H58.223c-6.204,0-11.736,3.906-13.812,9.752l0,0c-1.568,4.414-0.931,9.311,1.712,13.178l10.611,15.52"/>
	
		<circle style="fill:none;stroke:#000000;stroke-width:15;stroke-linecap:round;stroke-linejoin:round;stroke-miterlimit:10;" cx="56.734" cy="421.73" r="14.142"/>
	<path style="fill:none;stroke:#000000;stroke-width:15;stroke-linecap:round;stroke-linejoin:round;stroke-miterlimit:10;" d="&#10;&#9;&#9;M154.934,369.138c0-23.243-19.649-41.897-43.242-40.256c-20.335,1.414-36.607,18.203-37.436,38.571&#10;&#9;&#9;c-0.577,14.173,6.163,26.799,16.746,34.429c3.321,2.394,5.36,6.182,5.675,10.265l4.537,58.632c0.326,4.209,3.836,7.458,8.057,7.458&#10;&#9;&#9;h10.612c4.221,0,7.732-3.249,8.057-7.458l4.549-58.78c0.319-4.119,2.51-7.814,5.848-10.249&#10;&#9;&#9;C148.395,394.411,154.934,382.542,154.934,369.138z"/>
	<g>
		
			<line style="fill:none;stroke:#000000;stroke-width:15;stroke-linecap:round;stroke-linejoin:round;stroke-miterlimit:10;" x1="408.938" y1="449.809" x2="408.938" y2="470.012"/>
		
			<line style="fill:none;stroke:#000000;stroke-width:15;stroke-linecap:round;stroke-linejoin:round;stroke-miterlimit:10;" x1="419.04" y1="459.91" x2="398.837" y2="459.91"/>
	</g>
</g>















</svg>
