<?xml version="1.0" encoding="UTF-8"?>
<svg xmlns="http://www.w3.org/2000/svg" xmlns:xlink="http://www.w3.org/1999/xlink" version="1.1" id="Capa_1" x="0px" y="0px" viewBox="0 0 512 512" style="enable-background:new 0 0 512 512;" xml:space="preserve" width="512" height="512">
<g>
	<path style="fill:none;stroke:#000000;stroke-width:15;stroke-linecap:round;stroke-linejoin:round;stroke-miterlimit:10;" d="&#10;&#9;&#9;M291.33,83.25c0-5.91,4.79-10.7,10.7-10.7H493.8c5.91,0,10.7,4.79,10.7,10.7v227.11c0,5.91-4.79,10.7-10.7,10.7H340.89"/>
	
		<line style="fill:none;stroke:#000000;stroke-width:15;stroke-linecap:round;stroke-linejoin:round;stroke-miterlimit:10;" x1="296.41" y1="305.19" x2="296.41" y2="192.39"/>
	<path style="fill:none;stroke:#000000;stroke-width:15;stroke-linecap:round;stroke-linejoin:round;stroke-miterlimit:10;" d="&#10;&#9;&#9;M117.87,36.17c15.84-10.62,34.91-16.82,55.41-16.82h23.52c55.01,0,99.61,44.6,99.61,99.62v45.35"/>
	<path style="fill:none;stroke:#000000;stroke-width:15;stroke-linecap:round;stroke-linejoin:round;stroke-miterlimit:10;" d="&#10;&#9;&#9;M73.67,164.31v-45.34c0-21.92,7.08-42.19,19.08-58.64"/>
	
		<line style="fill:none;stroke:#000000;stroke-width:15;stroke-linecap:round;stroke-linejoin:round;stroke-miterlimit:10;" x1="73.67" y1="305.19" x2="73.67" y2="192.41"/>
	
		<line style="fill:none;stroke:#000000;stroke-width:15;stroke-linecap:round;stroke-linejoin:round;stroke-miterlimit:10;" x1="185.04" y1="492.65" x2="185.04" y2="403.53"/>
	<path style="fill:none;stroke:#000000;stroke-width:15;stroke-linecap:round;stroke-linejoin:round;stroke-miterlimit:10;" d="&#10;&#9;&#9;M100.051,298.863l-5.727,33.496c-0.264,1.544,0.483,3.085,1.858,3.834l16.565,9.03c1.904,1.038,2.495,3.493,1.272,5.283&#10;&#9;&#9;l-9.248,13.543c-0.956,1.401-0.827,3.275,0.314,4.53l79.952,87.999l37.3-41.054"/>
	<path style="fill:none;stroke:#000000;stroke-width:15;stroke-linecap:round;stroke-linejoin:round;stroke-miterlimit:10;" d="&#10;&#9;&#9;M245.782,389.72l19.207-21.14c1.141-1.255,1.27-3.129,0.314-4.53l-9.248-13.543c-1.223-1.79-0.632-4.245,1.272-5.283l16.565-9.03&#10;&#9;&#9;c1.375-0.75,2.122-2.291,1.858-3.834l-5.727-33.496"/>
	<path style="fill:none;stroke:#000000;stroke-width:15;stroke-linecap:round;stroke-linejoin:round;stroke-miterlimit:10;" d="&#10;&#9;&#9;M236.37,246.54v35.21c0,5.3,3.64,9.91,8.79,11.15l74.21,17.8c25.34,6.08,43.2,28.74,43.2,54.8v119.21c0,4.38-3.55,7.94-7.94,7.94&#10;&#9;&#9;H15.44c-4.39,0-7.94-3.56-7.94-7.94V365.5c0-26.06,17.87-48.72,43.21-54.8l74.2-17.8c5.16-1.24,8.79-5.85,8.79-11.15v-35.22"/>
	<path style="fill:none;stroke:#000000;stroke-width:15;stroke-linecap:round;stroke-linejoin:round;stroke-miterlimit:10;" d="&#10;&#9;&#9;M144.75,334.94c26.86,6.13,53.72,6.13,80.58,0"/>
	<path style="fill:none;stroke:#000000;stroke-width:15;stroke-linecap:round;stroke-linejoin:round;stroke-miterlimit:10;" d="&#10;&#9;&#9;M247.107,293.365l-55.67,106.295c-2.705,5.158-10.094,5.158-12.8,0l-55.672-106.295"/>
	<g>
		
			<line style="fill:none;stroke:#000000;stroke-width:15;stroke-linecap:round;stroke-linejoin:round;stroke-miterlimit:10;" x1="64.456" y1="492.649" x2="64.456" y2="452.261"/>
		
			<line style="fill:none;stroke:#000000;stroke-width:15;stroke-linecap:round;stroke-linejoin:round;stroke-miterlimit:10;" x1="305.617" y1="492.649" x2="305.617" y2="452.261"/>
	</g>
	<g>
		<path style="fill:none;stroke:#000000;stroke-width:15;stroke-linecap:round;stroke-linejoin:round;stroke-miterlimit:10;" d="&#10;&#9;&#9;&#9;M263.38,164.89c16.84-18.3,39.9-4.77,36.93,16.22c-2.72,19.21-22.6,31.47-37.48,25.95"/>
		<path style="fill:none;stroke:#000000;stroke-width:15;stroke-linecap:round;stroke-linejoin:round;stroke-miterlimit:10;" d="&#10;&#9;&#9;&#9;M106.7,164.89c-16.84-18.3-39.91-4.77-36.94,16.22c2.72,19.22,22.6,31.48,37.49,25.95"/>
	</g>
	<path style="fill:none;stroke:#000000;stroke-width:15;stroke-linecap:round;stroke-linejoin:round;stroke-miterlimit:10;" d="&#10;&#9;&#9;M260.135,124.373c1.854,0.228,3.245,1.807,3.245,3.675v73.482c0,21.49-26.4,48.15-41.67,54.74c-18.62,8.03-54.72,8.03-73.34,0&#10;&#9;&#9;c-15.27-6.59-41.67-33.25-41.67-54.74v-73.482c0-1.867,1.391-3.447,3.245-3.675c28.841-3.543,50.05-16.397,70.655-47.193&#10;&#9;&#9;c2.12-3.17,6.77-3.17,8.9,0C210.095,107.977,231.295,120.83,260.135,124.373z"/>
	
		<line style="fill:none;stroke:#000000;stroke-width:15;stroke-linecap:round;stroke-linejoin:round;stroke-miterlimit:10;" x1="146.303" y1="163.576" x2="146.303" y2="167.512"/>
	
		<line style="fill:none;stroke:#000000;stroke-width:15;stroke-linecap:round;stroke-linejoin:round;stroke-miterlimit:10;" x1="223.771" y1="163.576" x2="223.771" y2="167.512"/>
	<path style="fill:none;stroke:#000000;stroke-width:15;stroke-linecap:round;stroke-linejoin:round;stroke-miterlimit:10;" d="&#10;&#9;&#9;M166.022,210.194c12.39,6.155,25.64,6.155,38.029,0"/>
	<path style="fill:none;stroke:#000000;stroke-width:15;stroke-linecap:round;stroke-linejoin:round;stroke-miterlimit:10;" d="&#10;&#9;&#9;M136.466,142.945c6.558-3.958,13.116-3.958,19.674,0"/>
	<path style="fill:none;stroke:#000000;stroke-width:15;stroke-linecap:round;stroke-linejoin:round;stroke-miterlimit:10;" d="&#10;&#9;&#9;M213.934,142.945c6.558-3.958,13.116-3.958,19.674,0"/>
	<path style="fill:none;stroke:#000000;stroke-width:15;stroke-linecap:round;stroke-linejoin:round;stroke-miterlimit:10;" d="&#10;&#9;&#9;M406.681,280.915v-80.143c0.928,0.455,1.893,0.859,2.916,1.166c8.268,2.481,16.893-0.941,21.383-7.82&#10;&#9;&#9;c4.468,4.354,10.782,6.824,17.661,6.107c10.282-1.072,18.545-9.448,19.492-19.742c0.411-4.466-0.521-8.686-2.434-12.307&#10;&#9;&#9;c-0.697-1.318-0.663-2.92,0.11-4.196c2.004-3.309,3.16-7.189,3.16-11.341c0-8.933-5.34-16.614-13.001-20.036&#10;&#9;&#9;c-1.198-0.535-2.165-1.515-2.512-2.78c-1.589-5.799-6.024-10.677-12.208-12.532c-4.005-1.201-8.093-0.935-11.707,0.475&#10;&#9;&#9;c-1.638,0.639-3.481,0.434-4.881-0.629c-3.672-2.787-8.251-4.441-13.216-4.441c-5.423,0-10.384,1.973-14.207,5.24&#10;&#9;&#9;c-1.244,1.063-3.018,1.233-4.424,0.395c-3.272-1.951-7.094-3.074-11.181-3.074c-10.484,0-19.242,7.374-21.382,17.218&#10;&#9;&#9;c-10.731,1.405-19.019,10.578-19.019,21.693c0,3.735,0.938,7.249,2.587,10.326c-5.354,3.99-8.822,10.369-8.822,17.56&#10;&#9;&#9;c0,11.133,8.314,20.317,19.07,21.699c-0.724,2.388-1.005,4.968-0.714,7.653c0.838,7.731,6.467,14.226,13.945,16.361&#10;&#9;&#9;c3.227,0.922,6.317,0.9,9.185,0.279v52.868"/>
	<path style="fill:none;stroke:#000000;stroke-width:15;stroke-linecap:round;stroke-linejoin:round;stroke-miterlimit:10;" d="&#10;&#9;&#9;M358.558,222.573c-3.399-3.551-5.446-8.406-5.314-13.739c0.259-10.477,9.161-18.687,19.641-18.687&#10;&#9;&#9;c6.714,0,12.157-5.443,12.157-12.157v-0.23"/>
	<path style="fill:none;stroke:#000000;stroke-width:15;stroke-linecap:round;stroke-linejoin:round;stroke-miterlimit:10;" d="&#10;&#9;&#9;M446.287,200.348c12.117,0,21.94-9.823,21.94-21.94s-9.823-21.94-21.94-21.94"/>
	<path style="fill:none;stroke:#000000;stroke-width:15;stroke-linecap:round;stroke-linejoin:round;stroke-miterlimit:10;" d="&#10;&#9;&#9;M364.495,164.119c0-8.451,6.851-15.302,15.302-15.302h4.696"/>
</g>















</svg>
