<svg id="&#x421;&#x43B;&#x43E;&#x439;_1" height="512" viewBox="0 0 128 128" width="512" xmlns="http://www.w3.org/2000/svg"><path d="m59.45 13.94h-4.26v-4.26a2 2 0 0 0 -4 0v4.26h-4.25a2 2 0 1 0 0 4h4.25v4.25a2 2 0 0 0 4 0v-4.25h4.26a2 2 0 0 0 0-4z"/><path d="m96 94h1v1a2 2 0 1 0 4 0v-1h1a2 2 0 0 0 0-4h-6a2 2 0 0 0 0 4z"/><path d="m127.19 110.8a7.85 7.85 0 0 0 -4.94-3.7 17.76 17.76 0 0 0 -9.45-7.6 19.27 19.27 0 0 0 5.59-13.58 17 17 0 0 0 -.58-4.41 7.27 7.27 0 1 0 -9.7-10.63 25.84 25.84 0 0 0 -18.09 0 7.39 7.39 0 0 0 -13.21 4.56 7.32 7.32 0 0 0 .83 3.36 53 53 0 0 0 -12.7-4.64 27 27 0 0 0 15.28-24.38v-36.4a13.39 13.39 0 0 0 -13.38-13.38h-27.3a13.39 13.39 0 0 0 -13.37 13.38v36.4a27.08 27.08 0 0 0 15.29 24.35 52.92 52.92 0 0 0 -6.46 1.87 2 2 0 0 0 -.43.17 53.27 53.27 0 0 0 -34.57 49.83 2 2 0 0 0 4 0 49.26 49.26 0 0 1 27.83-44.31 83.76 83.76 0 0 0 -2.28 12.52 13 13 0 0 0 -10.83 12.79v16.32a4.67 4.67 0 0 0 4.66 4.68 2 2 0 0 0 0-4 .66.66 0 0 1 -.66-.67v-16.33a9 9 0 1 1 18 0v16.32a.66.66 0 0 1 -.72.68 2 2 0 1 0 0 4 4.67 4.67 0 0 0 4.66-4.67v-16.33a13 13 0 0 0 -11.08-12.83c.48-4.14 1.57-11.12 3.25-14.55l.31-.11 14.44 19.71a2 2 0 0 0 3.23 0l14.45-19.73a49.36 49.36 0 0 1 10.44 5.07c0 .45-.06.9-.06 1.36a19.34 19.34 0 0 0 5.69 13.71 18.72 18.72 0 0 0 -9.57 7.46 7.85 7.85 0 0 0 -5 3.71c-1 2-1.08 4.71-.09 8.91a11.06 11.06 0 0 0 10.59 8.29 8.36 8.36 0 0 0 1.94-.22 7.66 7.66 0 0 0 3.94-2.36c2.63 2.44 5.92 2.45 11.87 2.45s9.25 0 11.88-2.46a7.66 7.66 0 0 0 3.94 2.37 8.22 8.22 0 0 0 1.93.22 11 11 0 0 0 10.52-8.29c.99-4.2.96-6.87-.09-8.91zm-13.47-38.58a3.27 3.27 0 0 1 2.5 5.39 15.34 15.34 0 0 0 -4.43-4.76 3.32 3.32 0 0 1 1.93-.63zm-29.52-.22a3.42 3.42 0 0 1 2.15.78 15.43 15.43 0 0 0 -4.61 5 3.4 3.4 0 0 1 2.46-5.78zm-8-33.61c-12.39-.46-20.08-4.23-24.2-7.09h24.22zm-46-25a9.38 9.38 0 0 1 9.34-9.39h27.3a9.39 9.39 0 0 1 9.38 9.38v13.92h-46zm0 36.4v-18.49h15.64c2.41 2.56 11.34 10.44 30.38 11.08v7.4a23 23 0 1 1 -46 0zm23 44.87-12-16.36a49.27 49.27 0 0 1 24 0zm30.45-8.73c0-9.38 8.28-12.7 15.37-12.7s15.38 3.32 15.38 12.7a15.38 15.38 0 0 1 -30.75 0zm-1.35 38a7 7 0 0 1 -7.68-5.09c-.73-3.12-.81-5.08-.24-6.17.33-.66 1.07-1.42 4-2.09 2.55-.6 3.76-.65 4.47-.17.92.62 1.72 2.5 2.52 5.93a8 8 0 0 1 -.37 5.23 4 4 0 0 1 -2.71 2.32zm16.72 0c-6.74 0-8.28-.07-9.87-2.18a12.64 12.64 0 0 0 .08-6.3c-1.09-4.65-2.3-7.07-4.18-8.34a6 6 0 0 0 -3.1-1 13.07 13.07 0 0 1 7.65-3.23 19.3 19.3 0 0 0 18.86 0 11.69 11.69 0 0 1 7.81 3.24 6.09 6.09 0 0 0 -3.3 1c-1.88 1.27-3.09 3.69-4.18 8.34a12.56 12.56 0 0 0 .09 6.31c-1.59 2.03-3.14 2.1-9.88 2.1zm24.38-5.07a7 7 0 0 1 -7.65 5.09 4.09 4.09 0 0 1 -2.68-2.36 8 8 0 0 1 -.38-5.23c.8-3.43 1.6-5.31 2.52-5.93a2.28 2.28 0 0 1 1.34-.33 14.82 14.82 0 0 1 3.13.5c2.9.67 3.63 1.43 4 2.09.52 1.03.44 2.99-.29 6.11z"/></svg>